<mxfile host="app.diagrams.net" agent="Mozilla/5.0 (Windows NT 10.0; Win64; x64) AppleWebKit/537.36 (KHTML, like Gecko) Chrome/129.0.0.0 Safari/537.36 Edg/129.0.0.0" version="24.7.17">
  <diagram name="Página-1" id="ZvWfYAeezWSnIuHHfdC_">
    <mxGraphModel dx="2080" dy="846" grid="1" gridSize="10" guides="1" tooltips="1" connect="1" arrows="1" fold="1" page="1" pageScale="1" pageWidth="1169" pageHeight="827" math="0" shadow="0">
      <root>
        <mxCell id="0" />
        <mxCell id="1" parent="0" />
        <mxCell id="UwNofzxLyWuOreiW3Iiq-2" value="" style="rounded=1;whiteSpace=wrap;html=1;fillColor=#663300;fontColor=#ffffff;strokeColor=#6D1F00;" vertex="1" parent="1">
          <mxGeometry x="270" y="20" width="550" height="780" as="geometry" />
        </mxCell>
        <mxCell id="UwNofzxLyWuOreiW3Iiq-5" style="edgeStyle=orthogonalEdgeStyle;rounded=0;orthogonalLoop=1;jettySize=auto;html=1;entryX=0;entryY=0.5;entryDx=0;entryDy=0;" edge="1" parent="1" source="UwNofzxLyWuOreiW3Iiq-3" target="UwNofzxLyWuOreiW3Iiq-4">
          <mxGeometry relative="1" as="geometry">
            <Array as="points">
              <mxPoint x="175" y="100" />
            </Array>
          </mxGeometry>
        </mxCell>
        <mxCell id="UwNofzxLyWuOreiW3Iiq-7" style="edgeStyle=orthogonalEdgeStyle;rounded=0;orthogonalLoop=1;jettySize=auto;html=1;" edge="1" parent="1" source="UwNofzxLyWuOreiW3Iiq-3" target="UwNofzxLyWuOreiW3Iiq-6">
          <mxGeometry relative="1" as="geometry" />
        </mxCell>
        <mxCell id="UwNofzxLyWuOreiW3Iiq-9" style="edgeStyle=orthogonalEdgeStyle;rounded=0;orthogonalLoop=1;jettySize=auto;html=1;exitX=0.5;exitY=1;exitDx=0;exitDy=0;entryX=0;entryY=0.5;entryDx=0;entryDy=0;" edge="1" parent="1" source="UwNofzxLyWuOreiW3Iiq-3" target="UwNofzxLyWuOreiW3Iiq-8">
          <mxGeometry relative="1" as="geometry" />
        </mxCell>
        <mxCell id="UwNofzxLyWuOreiW3Iiq-3" value="&lt;font style=&quot;font-size: 14px;&quot;&gt;Administrador&lt;/font&gt;" style="whiteSpace=wrap;html=1;aspect=fixed;" vertex="1" parent="1">
          <mxGeometry x="120" y="335" width="110" height="110" as="geometry" />
        </mxCell>
        <mxCell id="UwNofzxLyWuOreiW3Iiq-13" style="edgeStyle=orthogonalEdgeStyle;rounded=0;orthogonalLoop=1;jettySize=auto;html=1;entryX=0.5;entryY=0;entryDx=0;entryDy=0;" edge="1" parent="1" source="UwNofzxLyWuOreiW3Iiq-4" target="UwNofzxLyWuOreiW3Iiq-10">
          <mxGeometry relative="1" as="geometry" />
        </mxCell>
        <mxCell id="UwNofzxLyWuOreiW3Iiq-4" value="Gestion&lt;div&gt;Excursiones&lt;/div&gt;&lt;div&gt;&lt;br&gt;&lt;/div&gt;" style="rhombus;whiteSpace=wrap;html=1;" vertex="1" parent="1">
          <mxGeometry x="360" y="50" width="100" height="100" as="geometry" />
        </mxCell>
        <mxCell id="UwNofzxLyWuOreiW3Iiq-6" value="Gestion&lt;div&gt;Socio&lt;/div&gt;" style="rhombus;whiteSpace=wrap;html=1;" vertex="1" parent="1">
          <mxGeometry x="370" y="330" width="100" height="100" as="geometry" />
        </mxCell>
        <mxCell id="UwNofzxLyWuOreiW3Iiq-20" style="edgeStyle=orthogonalEdgeStyle;rounded=0;orthogonalLoop=1;jettySize=auto;html=1;entryX=0.5;entryY=0;entryDx=0;entryDy=0;" edge="1" parent="1" source="UwNofzxLyWuOreiW3Iiq-8" target="UwNofzxLyWuOreiW3Iiq-17">
          <mxGeometry relative="1" as="geometry" />
        </mxCell>
        <mxCell id="UwNofzxLyWuOreiW3Iiq-8" value="Gestion&lt;div&gt;Inscripciones&lt;/div&gt;&lt;div&gt;&lt;br&gt;&lt;/div&gt;" style="rhombus;whiteSpace=wrap;html=1;" vertex="1" parent="1">
          <mxGeometry x="370" y="640" width="110" height="100" as="geometry" />
        </mxCell>
        <mxCell id="UwNofzxLyWuOreiW3Iiq-10" value="Añadir excursion" style="rounded=0;whiteSpace=wrap;html=1;" vertex="1" parent="1">
          <mxGeometry x="630" y="100" width="120" height="60" as="geometry" />
        </mxCell>
        <mxCell id="UwNofzxLyWuOreiW3Iiq-11" value="Mostrar excursiones con filtro entre fechas&lt;div&gt;&lt;br&gt;&lt;/div&gt;" style="rounded=0;whiteSpace=wrap;html=1;" vertex="1" parent="1">
          <mxGeometry x="630" y="160" width="120" height="60" as="geometry" />
        </mxCell>
        <mxCell id="UwNofzxLyWuOreiW3Iiq-12" value="Añadir o eliminar socio" style="rounded=0;whiteSpace=wrap;html=1;" vertex="1" parent="1">
          <mxGeometry x="630" y="290" width="120" height="60" as="geometry" />
        </mxCell>
        <mxCell id="UwNofzxLyWuOreiW3Iiq-15" value="Modificar seguro" style="rounded=0;whiteSpace=wrap;html=1;" vertex="1" parent="1">
          <mxGeometry x="630" y="350" width="120" height="60" as="geometry" />
        </mxCell>
        <mxCell id="UwNofzxLyWuOreiW3Iiq-16" value="Mostar socio" style="rounded=0;whiteSpace=wrap;html=1;" vertex="1" parent="1">
          <mxGeometry x="630" y="410" width="120" height="60" as="geometry" />
        </mxCell>
        <mxCell id="UwNofzxLyWuOreiW3Iiq-17" value="Añadir o eleminar Inscripcion" style="rounded=0;whiteSpace=wrap;html=1;" vertex="1" parent="1">
          <mxGeometry x="630" y="590" width="120" height="60" as="geometry" />
        </mxCell>
        <mxCell id="UwNofzxLyWuOreiW3Iiq-18" value="Mostrar inscrpciones" style="rounded=0;whiteSpace=wrap;html=1;" vertex="1" parent="1">
          <mxGeometry x="630" y="650" width="120" height="60" as="geometry" />
        </mxCell>
        <mxCell id="UwNofzxLyWuOreiW3Iiq-19" value="Aádor socio a Inscripcion" style="rounded=0;whiteSpace=wrap;html=1;" vertex="1" parent="1">
          <mxGeometry x="630" y="710" width="120" height="60" as="geometry" />
        </mxCell>
      </root>
    </mxGraphModel>
  </diagram>
</mxfile>
